<svg width="520" height="520" fill="none" xmlns="http://www.w3.org/2000/svg"><g clip-path="url(#a)"><path fill="#8C3300" d="M0 104h104v104H0z"/><path fill-rule="evenodd" clip-rule="evenodd" d="M4.8 108.8v4.8h4.8v4.8h4.8v4.4h4.8v4.8H24v56.8h-4.8v4.8h-4.8v4.4H9.6v4.8H4.8v4.8H0v-94.4h4.8Z" fill="#DC8553"/><path fill-rule="evenodd" clip-rule="evenodd" d="M99.2 108.8h-4.8v4.8h-4.8v4.8h-4.4v4.8h-4.8v4.8H23.6v-4.8h-4.8v-4.8h-4.4v-4.8H9.6v-4.8H4.8V104h94.4v4.8Z" fill="#DC8553"/><path fill-rule="evenodd" clip-rule="evenodd" d="M99.2 203.2v-4.8h-4.8v-4.8h-4.8v-4.4h-4.8v-4.8H80v-56.8h4.8v-4.8h4.8v-4.4h4.8v-4.8h4.8v-4.8h4.8v94.4h-4.8Z" fill="#000"/><path fill-rule="evenodd" clip-rule="evenodd" d="M80.4 184H23.6v4.8h-4.8v4.8h-4.4v4.8H9.6v4.8H4.8v4.8h94.4v-4.8h-4.8v-4.8h-4.8v-4.8h-4.4v-4.8h-4.8V184Z" fill="#000"/><path fill="#8C3300" d="M0 0h104v104H0z"/><path fill-rule="evenodd" clip-rule="evenodd" d="M4.8 4.8v4.8h4.8v4.8h4.8v4.4h4.8v4.8H24v56.8h-4.8v4.8h-4.8v4.4H9.6v4.8H4.8v4.8H0V4.8h4.8Z" fill="#DC8553"/><path fill-rule="evenodd" clip-rule="evenodd" d="M99.2 4.8h-4.8v4.8h-4.8v4.8h-4.4v4.8h-4.8V24H23.6v-4.8h-4.8v-4.8h-4.4V9.6H9.6V4.8H4.8V0h94.4v4.8Z" fill="#DC8553"/><path fill-rule="evenodd" clip-rule="evenodd" d="M99.2 99.2v-4.8h-4.8v-4.8h-4.8v-4.4h-4.8v-4.8H80V23.6h4.8v-4.8h4.8v-4.4h4.8V9.6h4.8V4.8h4.8v94.4h-4.8Z" fill="#000"/><path fill-rule="evenodd" clip-rule="evenodd" d="M80.4 80H23.6v4.8h-4.8v4.8h-4.4v4.8H9.6v4.8H4.8v4.8h94.4v-4.8h-4.8v-4.8h-4.8v-4.8h-4.4v-4.8h-4.8V80Z" fill="#000"/><path fill="#8C3300" d="M0 312h104v104H0z"/><path fill-rule="evenodd" clip-rule="evenodd" d="M4.8 316.8v4.8h4.8v4.8h4.8v4.4h4.8v4.8H24v56.8h-4.8v4.8h-4.8v4.4H9.6v4.8H4.8v4.8H0v-94.4h4.8Z" fill="#DC8553"/><path fill-rule="evenodd" clip-rule="evenodd" d="M99.2 316.8h-4.8v4.8h-4.8v4.8h-4.4v4.8h-4.8v4.8H23.6v-4.8h-4.8v-4.8h-4.4v-4.8H9.6v-4.8H4.8V312h94.4v4.8Z" fill="#DC8553"/><path fill-rule="evenodd" clip-rule="evenodd" d="M99.2 411.2v-4.8h-4.8v-4.8h-4.8v-4.4h-4.8v-4.8H80v-56.8h4.8v-4.8h4.8v-4.4h4.8v-4.8h4.8v-4.8h4.8v94.4h-4.8Z" fill="#000"/><path fill-rule="evenodd" clip-rule="evenodd" d="M80.4 392H23.6v4.8h-4.8v4.8h-4.4v4.8H9.6v4.8H4.8v4.8h94.4v-4.8h-4.8v-4.8h-4.8v-4.8h-4.4v-4.8h-4.8V392Z" fill="#000"/><path fill="#8C3300" d="M0 208h104v104H0z"/><path fill-rule="evenodd" clip-rule="evenodd" d="M4.8 212.8v4.8h4.8v4.8h4.8v4.4h4.8v4.8H24v56.8h-4.8v4.8h-4.8v4.4H9.6v4.8H4.8v4.8H0v-94.4h4.8Z" fill="#DC8553"/><path fill-rule="evenodd" clip-rule="evenodd" d="M99.2 212.8h-4.8v4.8h-4.8v4.8h-4.4v4.8h-4.8v4.8H23.6v-4.8h-4.8v-4.8h-4.4v-4.8H9.6v-4.8H4.8V208h94.4v4.8Z" fill="#DC8553"/><path fill-rule="evenodd" clip-rule="evenodd" d="M99.2 307.2v-4.8h-4.8v-4.8h-4.8v-4.4h-4.8v-4.8H80v-56.8h4.8v-4.8h4.8v-4.4h4.8v-4.8h4.8v-4.8h4.8v94.4h-4.8Z" fill="#000"/><path fill-rule="evenodd" clip-rule="evenodd" d="M80.4 288H23.6v4.8h-4.8v4.8h-4.4v4.8H9.6v4.8H4.8v4.8h94.4v-4.8h-4.8v-4.8h-4.8v-4.8h-4.4v-4.8h-4.8V288Z" fill="#000"/><path fill="#8C3300" d="M0 416h104v104H0z"/><path fill-rule="evenodd" clip-rule="evenodd" d="M4.8 420.8v4.8h4.8v4.8h4.8v4.4h4.8v4.8H24v56.8h-4.8v4.8h-4.8v4.4H9.6v4.8H4.8v4.8H0v-94.4h4.8Z" fill="#DC8553"/><path fill-rule="evenodd" clip-rule="evenodd" d="M99.2 420.8h-4.8v4.8h-4.8v4.8h-4.4v4.8h-4.8v4.8H23.6v-4.8h-4.8v-4.8h-4.4v-4.8H9.6v-4.8H4.8V416h94.4v4.8Z" fill="#DC8553"/><path fill-rule="evenodd" clip-rule="evenodd" d="M99.2 515.2v-4.8h-4.8v-4.8h-4.8v-4.4h-4.8v-4.8H80v-56.8h4.8v-4.8h4.8v-4.4h4.8v-4.8h4.8v-4.8h4.8v94.4h-4.8Z" fill="#000"/><path fill-rule="evenodd" clip-rule="evenodd" d="M80.4 496H23.6v4.8h-4.8v4.8h-4.4v4.8H9.6v4.8H4.8v4.8h94.4v-4.8h-4.8v-4.8h-4.8v-4.8h-4.4v-4.8h-4.8V496Z" fill="#000"/><path fill="#8C3300" d="M104 312h104v104H104z"/><path fill-rule="evenodd" clip-rule="evenodd" d="M108.8 316.8v4.8h4.8v4.8h4.8v4.4h4.8v4.8h4.8v56.8h-4.8v4.8h-4.8v4.4h-4.8v4.8h-4.8v4.8H104v-94.4h4.8Z" fill="#DC8553"/><path fill-rule="evenodd" clip-rule="evenodd" d="M203.2 316.8h-4.8v4.8h-4.8v4.8h-4.4v4.8h-4.8v4.8h-56.8v-4.8h-4.8v-4.8h-4.4v-4.8h-4.8v-4.8h-4.8V312h94.4v4.8Z" fill="#DC8553"/><path fill-rule="evenodd" clip-rule="evenodd" d="M203.2 411.2v-4.8h-4.8v-4.8h-4.8v-4.4h-4.8v-4.8H184v-56.8h4.8v-4.8h4.8v-4.4h4.8v-4.8h4.8v-4.8h4.8v94.4h-4.8Z" fill="#000"/><path fill-rule="evenodd" clip-rule="evenodd" d="M184.4 392h-56.8v4.8h-4.8v4.8h-4.4v4.8h-4.8v4.8h-4.8v4.8h94.4v-4.8h-4.8v-4.8h-4.8v-4.8h-4.4v-4.8h-4.8V392Z" fill="#000"/><path fill="#8C3300" d="M104 208h104v104H104z"/><path fill-rule="evenodd" clip-rule="evenodd" d="M108.8 212.8v4.8h4.8v4.8h4.8v4.4h4.8v4.8h4.8v56.8h-4.8v4.8h-4.8v4.4h-4.8v4.8h-4.8v4.8H104v-94.4h4.8Z" fill="#DC8553"/><path fill-rule="evenodd" clip-rule="evenodd" d="M203.2 212.8h-4.8v4.8h-4.8v4.8h-4.4v4.8h-4.8v4.8h-56.8v-4.8h-4.8v-4.8h-4.4v-4.8h-4.8v-4.8h-4.8V208h94.4v4.8Z" fill="#DC8553"/><path fill-rule="evenodd" clip-rule="evenodd" d="M203.2 307.2v-4.8h-4.8v-4.8h-4.8v-4.4h-4.8v-4.8H184v-56.8h4.8v-4.8h4.8v-4.4h4.8v-4.8h4.8v-4.8h4.8v94.4h-4.8Z" fill="#000"/><path fill-rule="evenodd" clip-rule="evenodd" d="M184.4 288h-56.8v4.8h-4.8v4.8h-4.4v4.8h-4.8v4.8h-4.8v4.8h94.4v-4.8h-4.8v-4.8h-4.8v-4.8h-4.4v-4.8h-4.8V288Z" fill="#000"/><path fill="#8C3300" d="M104 104h104v104H104z"/><path fill-rule="evenodd" clip-rule="evenodd" d="M108.8 108.8v4.8h4.8v4.8h4.8v4.4h4.8v4.8h4.8v56.8h-4.8v4.8h-4.8v4.4h-4.8v4.8h-4.8v4.8H104v-94.4h4.8Z" fill="#DC8553"/><path fill-rule="evenodd" clip-rule="evenodd" d="M203.2 108.8h-4.8v4.8h-4.8v4.8h-4.4v4.8h-4.8v4.8h-56.8v-4.8h-4.8v-4.8h-4.4v-4.8h-4.8v-4.8h-4.8V104h94.4v4.8Z" fill="#DC8553"/><path fill-rule="evenodd" clip-rule="evenodd" d="M203.2 203.2v-4.8h-4.8v-4.8h-4.8v-4.4h-4.8v-4.8H184v-56.8h4.8v-4.8h4.8v-4.4h4.8v-4.8h4.8v-4.8h4.8v94.4h-4.8Z" fill="#000"/><path fill-rule="evenodd" clip-rule="evenodd" d="M184.4 184h-56.8v4.8h-4.8v4.8h-4.4v4.8h-4.8v4.8h-4.8v4.8h94.4v-4.8h-4.8v-4.8h-4.8v-4.8h-4.4v-4.8h-4.8V184Z" fill="#000"/><path fill="#8C3300" d="M104 416h104v104H104z"/><path fill-rule="evenodd" clip-rule="evenodd" d="M108.8 420.8v4.8h4.8v4.8h4.8v4.4h4.8v4.8h4.8v56.8h-4.8v4.8h-4.8v4.4h-4.8v4.8h-4.8v4.8H104v-94.4h4.8Z" fill="#DC8553"/><path fill-rule="evenodd" clip-rule="evenodd" d="M203.2 420.8h-4.8v4.8h-4.8v4.8h-4.4v4.8h-4.8v4.8h-56.8v-4.8h-4.8v-4.8h-4.4v-4.8h-4.8v-4.8h-4.8V416h94.4v4.8Z" fill="#DC8553"/><path fill-rule="evenodd" clip-rule="evenodd" d="M203.2 515.2v-4.8h-4.8v-4.8h-4.8v-4.4h-4.8v-4.8H184v-56.8h4.8v-4.8h4.8v-4.4h4.8v-4.8h4.8v-4.8h4.8v94.4h-4.8Z" fill="#000"/><path fill-rule="evenodd" clip-rule="evenodd" d="M184.4 496h-56.8v4.8h-4.8v4.8h-4.4v4.8h-4.8v4.8h-4.8v4.8h94.4v-4.8h-4.8v-4.8h-4.8v-4.8h-4.4v-4.8h-4.8V496Z" fill="#000"/><path fill="#8C3300" d="M208 312h104v104H208z"/><path fill-rule="evenodd" clip-rule="evenodd" d="M212.8 316.8v4.8h4.8v4.8h4.8v4.4h4.8v4.8h4.8v56.8h-4.8v4.8h-4.8v4.4h-4.8v4.8h-4.8v4.8H208v-94.4h4.8Z" fill="#DC8553"/><path fill-rule="evenodd" clip-rule="evenodd" d="M307.2 316.8h-4.8v4.8h-4.8v4.8h-4.4v4.8h-4.8v4.8h-56.8v-4.8h-4.8v-4.8h-4.4v-4.8h-4.8v-4.8h-4.8V312h94.4v4.8Z" fill="#DC8553"/><path fill-rule="evenodd" clip-rule="evenodd" d="M307.2 411.2v-4.8h-4.8v-4.8h-4.8v-4.4h-4.8v-4.8H288v-56.8h4.8v-4.8h4.8v-4.4h4.8v-4.8h4.8v-4.8h4.8v94.4h-4.8Z" fill="#000"/><path fill-rule="evenodd" clip-rule="evenodd" d="M288.4 392h-56.8v4.8h-4.8v4.8h-4.4v4.8h-4.8v4.8h-4.8v4.8h94.4v-4.8h-4.8v-4.8h-4.8v-4.8h-4.4v-4.8h-4.8V392Z" fill="#000"/><path fill="#8C3300" d="M208 208h104v104H208z"/><path fill-rule="evenodd" clip-rule="evenodd" d="M212.8 212.8v4.8h4.8v4.8h4.8v4.4h4.8v4.8h4.8v56.8h-4.8v4.8h-4.8v4.4h-4.8v4.8h-4.8v4.8H208v-94.4h4.8Z" fill="#DC8553"/><path fill-rule="evenodd" clip-rule="evenodd" d="M307.2 212.8h-4.8v4.8h-4.8v4.8h-4.4v4.8h-4.8v4.8h-56.8v-4.8h-4.8v-4.8h-4.4v-4.8h-4.8v-4.8h-4.8V208h94.4v4.8Z" fill="#DC8553"/><path fill-rule="evenodd" clip-rule="evenodd" d="M307.2 307.2v-4.8h-4.8v-4.8h-4.8v-4.4h-4.8v-4.8H288v-56.8h4.8v-4.8h4.8v-4.4h4.8v-4.8h4.8v-4.8h4.8v94.4h-4.8Z" fill="#000"/><path fill-rule="evenodd" clip-rule="evenodd" d="M288.4 288h-56.8v4.8h-4.8v4.8h-4.4v4.8h-4.8v4.8h-4.8v4.8h94.4v-4.8h-4.8v-4.8h-4.8v-4.8h-4.4v-4.8h-4.8V288Z" fill="#000"/><path fill="#8C3300" d="M312 312h104v104H312z"/><path fill-rule="evenodd" clip-rule="evenodd" d="M316.8 316.8v4.8h4.8v4.8h4.8v4.4h4.8v4.8h4.8v56.8h-4.8v4.8h-4.8v4.4h-4.8v4.8h-4.8v4.8H312v-94.4h4.8Z" fill="#DC8553"/><path fill-rule="evenodd" clip-rule="evenodd" d="M411.2 316.8h-4.8v4.8h-4.8v4.8h-4.4v4.8h-4.8v4.8h-56.8v-4.8h-4.8v-4.8h-4.4v-4.8h-4.8v-4.8h-4.8V312h94.4v4.8Z" fill="#DC8553"/><path fill-rule="evenodd" clip-rule="evenodd" d="M411.2 411.2v-4.8h-4.8v-4.8h-4.8v-4.4h-4.8v-4.8H392v-56.8h4.8v-4.8h4.8v-4.4h4.8v-4.8h4.8v-4.8h4.8v94.4h-4.8Z" fill="#000"/><path fill-rule="evenodd" clip-rule="evenodd" d="M392.4 392h-56.8v4.8h-4.8v4.8h-4.4v4.8h-4.8v4.8h-4.8v4.8h94.4v-4.8h-4.8v-4.8h-4.8v-4.8h-4.4v-4.8h-4.8V392Z" fill="#000"/><path fill="#8C3300" d="M312 416h104v104H312z"/><path fill-rule="evenodd" clip-rule="evenodd" d="M316.8 420.8v4.8h4.8v4.8h4.8v4.4h4.8v4.8h4.8v56.8h-4.8v4.8h-4.8v4.4h-4.8v4.8h-4.8v4.8H312v-94.4h4.8Z" fill="#DC8553"/><path fill-rule="evenodd" clip-rule="evenodd" d="M411.2 420.8h-4.8v4.8h-4.8v4.8h-4.4v4.8h-4.8v4.8h-56.8v-4.8h-4.8v-4.8h-4.4v-4.8h-4.8v-4.8h-4.8V416h94.4v4.8Z" fill="#DC8553"/><path fill-rule="evenodd" clip-rule="evenodd" d="M411.2 515.2v-4.8h-4.8v-4.8h-4.8v-4.4h-4.8v-4.8H392v-56.8h4.8v-4.8h4.8v-4.4h4.8v-4.8h4.8v-4.8h4.8v94.4h-4.8Z" fill="#000"/><path fill-rule="evenodd" clip-rule="evenodd" d="M392.4 496h-56.8v4.8h-4.8v4.8h-4.4v4.8h-4.8v4.8h-4.8v4.8h94.4v-4.8h-4.8v-4.8h-4.8v-4.8h-4.4v-4.8h-4.8V496Z" fill="#000"/><path fill="#8C3300" d="M208 416h104v104H208z"/><path fill-rule="evenodd" clip-rule="evenodd" d="M212.8 420.8v4.8h4.8v4.8h4.8v4.4h4.8v4.8h4.8v56.8h-4.8v4.8h-4.8v4.4h-4.8v4.8h-4.8v4.8H208v-94.4h4.8Z" fill="#DC8553"/><path fill-rule="evenodd" clip-rule="evenodd" d="M307.2 420.8h-4.8v4.8h-4.8v4.8h-4.4v4.8h-4.8v4.8h-56.8v-4.8h-4.8v-4.8h-4.4v-4.8h-4.8v-4.8h-4.8V416h94.4v4.8Z" fill="#DC8553"/><path fill-rule="evenodd" clip-rule="evenodd" d="M307.2 515.2v-4.8h-4.8v-4.8h-4.8v-4.4h-4.8v-4.8H288v-56.8h4.8v-4.8h4.8v-4.4h4.8v-4.8h4.8v-4.8h4.8v94.4h-4.8Z" fill="#000"/><path fill-rule="evenodd" clip-rule="evenodd" d="M288.4 496h-56.8v4.8h-4.8v4.8h-4.4v4.8h-4.8v4.8h-4.8v4.8h94.4v-4.8h-4.8v-4.8h-4.8v-4.8h-4.4v-4.8h-4.8V496Z" fill="#000"/><path fill="#8C3300" d="M416 416h104v104H416z"/><path fill-rule="evenodd" clip-rule="evenodd" d="M420.8 420.8v4.8h4.8v4.8h4.8v4.4h4.8v4.8h4.8v56.8h-4.8v4.8h-4.8v4.4h-4.8v4.8h-4.8v4.8H416v-94.4h4.8Z" fill="#DC8553"/><path fill-rule="evenodd" clip-rule="evenodd" d="M515.2 420.8h-4.8v4.8h-4.8v4.8h-4.4v4.8h-4.8v4.8h-56.8v-4.8h-4.8v-4.8h-4.4v-4.8h-4.8v-4.8h-4.8V416h94.4v4.8Z" fill="#DC8553"/><path fill-rule="evenodd" clip-rule="evenodd" d="M515.2 515.2v-4.8h-4.8v-4.8h-4.8v-4.4h-4.8v-4.8H496v-56.8h4.8v-4.8h4.8v-4.4h4.8v-4.8h4.8v-4.8h4.8v94.4h-4.8Z" fill="#000"/><path fill-rule="evenodd" clip-rule="evenodd" d="M496.4 496h-56.8v4.8h-4.8v4.8h-4.4v4.8h-4.8v4.8h-4.8v4.8h94.4v-4.8h-4.8v-4.8h-4.8v-4.8h-4.4v-4.8h-4.8V496Z" fill="#000"/></g><defs><clipPath id="a"><path fill="#fff" d="M0 0h520v520H0z"/></clipPath></defs></svg>