<svg width="118" height="64" fill="none" xmlns="http://www.w3.org/2000/svg"><path fill="#000" d="M70 6h10v5H70zM67 59h24v5H67zM35 54h32v5H35zM21 49h14v5H21z"/><path d="M40 5H15v12h-5v11H5v11h5v15h11v-5h14v5h32v5h24v-5h17V42h5V30h-5V18h-5V6H80v5H70v5H45v-5h-5V5Z" fill="#fff"/><path fill="#fff" d="M15 54h6v-5h-6z"/><path fill="#000" d="M10 54h11v5H10zM10 39v15H5V39zM5 28v11H0V28zM10 17v11H5V17zM15 5v12h-5V5zM40 5H15V0h25zM40 11V5h5v6zM70 16H45v-5h25zM80 1h23v5H80zM91 54h17v5H91zM108 6v12h-5V6zM113 18v12h-5V18zM118 30v12h-5V30zM113 42v12h-5V42z"/><path fill="#6D9BFF" d="M17 36h24v7H17zM41 43h24v7H41zM65 45h24v7H65zM89 41h14v7H89z"/></svg>